<svg version="1" xmlns="http://www.w3.org/2000/svg" width="933.333" height="933.333" viewBox="0 0 700.000000 700.000000"><path d="M174.5 175L-.5 350l175.3 175.3L350 700.5l175.2-175.2L700.5 350l-175-175C429.3 78.8 350.3 0 350 0c-.3 0-79.3 78.8-175.5 175zm231.5 5.4c9 1.9 16.8 4.6 27.2 9.3l7.7 3.6.8 6.6c.4 3.6.8 12.9.7 20.6-.1 15.8-1.6 25-6.4 37.4-7.7 20-22.1 32.5-94.5 82.1-18.7 12.8-37.6 26-42 29.4-28.8 21.7-44.1 38.4-52.9 57.8-6.6 14.5-11.8 34.1-13.3 50-.3 3.8-.9 7.1-1.4 7.4-.9.5-10.2-10.8-15.1-18.6-30.1-47.5-31.7-117.9-3.9-176.5 9.6-20.2 20.7-36 36.5-52.4 30.2-31 68.5-51.3 109.1-57.6 11.5-1.8 37.1-1.3 47.5.9zm70.4 44.6c33.9 42.9 40.2 114.6 15.4 175.4-24.5 60.2-78.4 105.3-141.8 118.8-14 2.9-43.4 3.2-55 .5-15.8-3.7-28.3-8.6-37.2-14.5l-3.8-2.5v-10c0-26.2 8.6-55.1 21.3-71.4 12.7-16.4 47.6-43.8 101-79.5 18-12 42.2-30 52.7-39.1 24.5-21.3 32.5-39.8 35.6-81.6l.6-9.4 3.4 3.9c1.9 2.1 5.4 6.4 7.8 9.4z"/></svg>